<?xml version="1.0" standalone="no"?>
<!DOCTYPE svg PUBLIC "-//W3C//DTD SVG 1.1//EN" "http://www.w3.org/Graphics/SVG/1.1/DTD/svg11.dtd" >
<svg xmlns="http://www.w3.org/2000/svg">
<metadata></metadata>
<defs>
<font id="minercraftoryregular" horiz-adv-x="1600" >
<font-face units-per-em="2048" ascent="1638" descent="-410" />
<missing-glyph horiz-adv-x="800" />
<glyph horiz-adv-x="2048" />
<glyph horiz-adv-x="2048" />
<glyph unicode="&#xd;" horiz-adv-x="2048" />
<glyph unicode=" "  horiz-adv-x="800" />
<glyph unicode="&#x09;" horiz-adv-x="800" />
<glyph unicode="&#xa0;" horiz-adv-x="800" />
<glyph unicode="!" horiz-adv-x="800" d="M100 8v400h600v-400h-600zM100 600v1400h600v-1400h-600z" />
<glyph unicode="&#x22;" d="M100 1200v200h200v200h-200v400h600v-600h-200v-200h-400zM900 1200v200h200v200h-200v400h600v-600h-200v-200h-400z" />
<glyph unicode="#" horiz-adv-x="2000" d="M100 400v400h200v400h-200v400h200v400h600v-400h200v400h600v-400h200v-400h-200v-400h200v-400h-200v-400h-600v400h-200v-400h-600v400h-200zM900 800h200v400h-200v-400z" />
<glyph unicode="&#x26;" d="M100 200v800h200v200h-200v600h200v200h1200v-400h-800v-400h800v-1000h-200v-200h-1000v200h-200zM700 400h200v400h-200v-400z" />
<glyph unicode="'" horiz-adv-x="800" d="M100 1200v200h200v200h-200v400h600v-600h-200v-200h-400z" />
<glyph unicode="(" horiz-adv-x="1000" d="M100 200v1600h200v200h600v-400h-200v-1200h200v-400h-600v200h-200z" />
<glyph unicode=")" horiz-adv-x="1000" d="M100 0v400h200v1200h-200v400h600v-200h200v-1600h-200v-200h-600z" />
<glyph unicode="," horiz-adv-x="800" d="M100 0v400h600v-600h-200v-200h-400v200h200v200h-200z" />
<glyph unicode="-" horiz-adv-x="1000" d="M100 792v400h800v-400h-800z" />
<glyph unicode="." horiz-adv-x="800" d="M100 0v400h600v-400h-600z" />
<glyph unicode="0" d="M100 0v2000h1400v-2000h-1400zM700 400h200v1200h-200v-1200z" />
<glyph unicode="1" horiz-adv-x="1000" d="M100 1600v400h800v-2000h-600v1600h-200z" />
<glyph unicode="2" d="M100 0v1000h200v200h600v400h-800v400h1200v-200h200v-800h-200v-200h-600v-400h800v-400h-1400z" />
<glyph unicode="3" d="M100 0v400h800v400h-800v400h800v400h-800v400h1200v-200h200v-600h-200v-200h200v-800h-200v-200h-1200z" />
<glyph unicode="4" d="M100 800v1200h600v-800h200v800h600v-2000h-600v800h-800z" />
<glyph unicode="5" d="M100 0v400h800v400h-800v1200h1400v-400h-800v-400h600v-200h200v-800h-200v-200h-1200z" />
<glyph unicode="6" d="M100 0v2000h1400v-400h-800v-400h800v-1200h-1400zM700 400h200v400h-200v-400z" />
<glyph unicode="7" d="M100 1600v400h1400v-800h-200v-200h-200v-1000h-600v1000h200v200h200v400h-800z" />
<glyph unicode="8" d="M100 0v1000h200v200h-200v800h1400v-800h-200v-200h200v-1000h-1400zM700 400h200v400h-200v-400zM700 1200h200v400h-200v-400z" />
<glyph unicode="9" d="M100 0v400h800v400h-800v1200h1400v-2000h-1400zM700 1200h200v400h-200v-400z" />
<glyph unicode="=" d="M100 0h600v600h200v-600h600v2000h-1400v-2000zM500 1400v200h200v-200h200v200h200v-200h-200v-100h100v-300h-100v100h-200v-100h-100v300h100v100h-200z" />
<glyph unicode="?" d="M100 1600v400h1200v-200h200v-800h-200v-200h-200v-200h-600v400h200v200h200v400h-800zM500 0v400h600v-400h-600z" />
<glyph unicode="A" d="M100 0v2000h1400v-2000h-600v800h-200v-800h-600zM700 1200h200v400h-200v-400z" />
<glyph unicode="B" d="M100 0v2000h1400v-800h-200v-200h200v-1000h-1400zM700 1200h200v400h-200v-400zM701 399h200v400h-200v-400z" />
<glyph unicode="C" d="M100 0v2000h1400v-400h-800v-1200h800v-400h-1400z" />
<glyph unicode="D" d="M100 0v2000h1200v-200h200v-1600h-200v-200h-1200zM700 400h200v1200h-200v-1200z" />
<glyph unicode="E" d="M100 0v2000h1400v-400h-800v-400h800v-400h-800v-400h800v-400h-1400z" />
<glyph unicode="F" d="M100 0v2000h1400v-400h-800v-400h800v-400h-800v-800h-600z" />
<glyph unicode="G" d="M100 0v2000h1400v-400h-800v-1200h200v800h600v-1200h-1400z" />
<glyph unicode="H" d="M100 0v2000h600v-800h200v800h600v-2000h-600v800h-200v-800h-600z" />
<glyph unicode="I" horiz-adv-x="800" d="M100 0v2000h600v-2000h-600z" />
<glyph unicode="J" horiz-adv-x="1400" d="M100 0v400h600v1600h600v-2000h-1200z" />
<glyph unicode="K" d="M100 0v2000h600v-800h200v800h600v-800h-200v-200h200v-1000h-600v800h-200v-800h-600z" />
<glyph unicode="L" horiz-adv-x="1400" d="M100 0v2000h600v-1600h600v-400h-1200z" />
<glyph unicode="M" horiz-adv-x="2200" d="M100 0v2000h600v-400h200v-400h400v400h200v400h600v-2000h-600v800h-200v-400h-400v400h-200v-800h-600z" />
<glyph unicode="N" horiz-adv-x="1800" d="M100 0v2000h600v-400h200v-400h200v800h600v-2000h-600v600h-200v400h-200v-1000h-600z" />
<glyph unicode="O" d="M100 0v2000h1400v-2000h-1400zM700 400h200v1200h-200v-1200z" />
<glyph unicode="P" d="M100 0v2000h1400v-1200h-800v-800h-600zM700 1200h200v400h-200v-400z" />
<glyph unicode="Q" d="M100 0v2000h1400v-1800h-200v-200h200v-400h-600v200h-200v200h-600zM700 400h200v1200h-200v-1200z" />
<glyph unicode="R" d="M100 0v2000h1400v-800h-200v-200h200v-1000h-600v800h-200v-800h-600zM700 1200h200v400h-200v-400z" />
<glyph unicode="S" d="M100 0v400h800v400h-800v1200h1400v-400h-800v-400h800v-1200h-1400z" />
<glyph unicode="T" d="M100 1600v400h1400v-400h-400v-1600h-600v1600h-400z" />
<glyph unicode="U" d="M100 0v2000h600v-1600h200v1600h600v-2000h-1400z" />
<glyph unicode="V" d="M100 600v1400h600v-1600h200v1600h600v-1400h-200v-400h-200v-200h-600v200h-200v400h-200z" />
<glyph unicode="W" horiz-adv-x="2200" d="M100 800v1200h600v-1200h200v800h400v-800h200v1200h600v-1200h-200v-800h-600v400h-400v-400h-600v800h-200z" />
<glyph unicode="X" d="M100 0v1000h200v200h-200v800h600v-800h200v800h600v-800h-200v-200h200v-1000h-600v800h-200v-800h-600z" />
<glyph unicode="Y" d="M100 800v1200h600v-800h200v800h600v-1200h-400v-800h-600v800h-400z" />
<glyph unicode="Z" d="M100 0v800h200v200h200v200h200v200h200v200h-800v400h1400v-800h-200v-200h-200v-200h-200v-200h-200v-200h800v-400h-1400z" />
<glyph unicode="[" horiz-adv-x="1000" d="M100 0v2000h800v-400h-200v-1200h200v-400h-800z" />
<glyph unicode="]" horiz-adv-x="1000" d="M100 0v400h200v1200h-200v400h800v-2000h-800z" />
<glyph unicode="a" d="M100 0v1000h800v200h-800v400h1400v-1600h-1400zM700 400h200v200h-200v-200z" />
<glyph unicode="b" d="M100 0v2000h600v-400h800v-1600h-1400zM700 400h200v800h-200v-800z" />
<glyph unicode="c" d="M100 0v1600h1400v-400h-800v-800h800v-400h-1400z" />
<glyph unicode="d" d="M100 0v1600h800v400h600v-2000h-1400zM700 400h200v800h-200v-800z" />
<glyph unicode="e" d="M100 0v1600h1400v-1000h-800v-200h800v-400h-1400zM700 1000h200v200h-200v-200z" />
<glyph unicode="f" horiz-adv-x="1200" d="M100 0v2000h1000v-400h-400v-200h400v-400h-400v-1000h-600z" />
<glyph unicode="g" d="M100 0h800v200h-800v1400h1400v-2000h-1400v400zM700 600h200v600h-200v-600z" />
<glyph unicode="h" d="M100 0v2000h600v-400h800v-1600h-600v1200h-200v-1200h-600z" />
<glyph unicode="i" horiz-adv-x="800" d="M100 8v1400h600v-1400h-600zM100 1600v400h600v-400h-600z" />
<glyph unicode="j" horiz-adv-x="1200" d="M100 0h400v1400h600v-1800h-1000v400zM500 1600v400h600v-400h-600z" />
<glyph unicode="k" d="M100 0v2000h600v-1000h200v600h600v-600h-200v-200h200v-800h-600v600h-200v-600h-600z" />
<glyph unicode="l" horiz-adv-x="800" d="M100 0v2000h600v-2000h-600z" />
<glyph unicode="m" horiz-adv-x="2400" d="M100 0v1600h1000v-200h200v200h1000v-1600h-600v1200h-200v-1200h-600v1200h-200v-1200h-600z" />
<glyph unicode="n" d="M100 0v1600h1400v-1600h-600v1200h-200v-1200h-600z" />
<glyph unicode="o" d="M100 0v1600h1400v-1600h-1400zM700 400h200v800h-200v-800z" />
<glyph unicode="p" d="M100 -600v2200h1400v-1600h-800v-600h-600zM700 400h200v800h-200v-800z" />
<glyph unicode="q" d="M100 0v1600h1400v-2200h-600v600h-800zM700 400h200v800h-200v-800z" />
<glyph unicode="r" horiz-adv-x="1400" d="M100 0v1600h1200v-400h-600v-1200h-600z" />
<glyph unicode="s" d="M100 0v400h800v200h-800v1000h1400v-400h-800v-200h800v-1000h-1400z" />
<glyph unicode="t" horiz-adv-x="1200" d="M100 0v2000h600v-400h400v-400h-400v-800h400v-400h-1000z" />
<glyph unicode="u" d="M100 0v1600h600v-1200h200v1200h600v-1600h-1400z" />
<glyph unicode="v" d="M100 600v1000h600v-1200h200v1200h600v-1000h-200v-400h-200v-200h-600v200h-200v400h-200z" />
<glyph unicode="w" horiz-adv-x="2200" d="M100 400v1200h600v-1000h200v800h400v-800h200v1000h600v-1200h-200v-400h-600v200h-400v-200h-600v400h-200z" />
<glyph unicode="x" d="M100 0v800h200v200h-200v600h600v-600h200v600h600v-600h-200v-200h200v-800h-600v600h-200v-600h-600z" />
<glyph unicode="y" d="M100 0h800v200h-800v1400h600v-1000h200v1000h600v-2000h-1400v400z" />
<glyph unicode="z" d="M100 0v600h200v200h200v200h200v200h-600v400h1400v-600h-200v-200h-200v-200h-200v-200h600v-400h-1400z" />
<glyph unicode="&#xa1;" horiz-adv-x="800" d="M100 8v1400h600v-1400h-600zM100 1600v400h600v-400h-600z" />
<glyph unicode="&#xad;" horiz-adv-x="1000" d="M100 792v400h800v-400h-800z" />
<glyph unicode="&#xbf;" d="M100 200v800h200v200h200v200h600v-400h-200v-200h-200v-400h800v-400h-1200v200h-200zM500 1600v400h600v-400h-600z" />
<glyph unicode="&#xc0;" d="M100 0v2000h1400v-2000h-600v800h-200v-800h-600zM300 2400v200h600v-200h200v-200h-600v200h-200zM700 1200h200v400h-200v-400z" />
<glyph unicode="&#xc1;" d="M100 0v2000h1400v-2000h-600v800h-200v-800h-600zM500 2200v200h200v200h600v-200h-200v-200h-600zM700 1200h200v400h-200v-400z" />
<glyph unicode="&#xc2;" d="M100 0v2000h1400v-2000h-600v800h-200v-800h-600zM100 2200v200h200v200h1000v-200h200v-200h-600v200h-200v-200h-600zM700 1200h200v400h-200v-400z" />
<glyph unicode="&#xc3;" d="M100 0v2000h1400v-2000h-600v800h-200v-800h-600zM100 2200v400h800v-200h200v200h400v-400h-800v200h-200v-200h-400zM700 1200h200v400h-200v-400z" />
<glyph unicode="&#xc4;" d="M100 0v2000h1400v-2000h-600v800h-200v-800h-600zM100 2200v400h600v-400h-600zM700 1200h200v400h-200v-400zM900 2200v400h600v-400h-600z" />
<glyph unicode="&#xc5;" d="M100 0v2000h1400v-2000h-600v800h-200v-800h-600zM500 2200v400h600v-400h-600zM700 1200h200v400h-200v-400z" />
<glyph unicode="&#xc6;" horiz-adv-x="2400" d="M100 0v2000h2200v-400h-800v-400h800v-400h-800v-400h800v-400h-1400v800h-200v-800h-600zM700 1200h200v400h-200v-400z" />
<glyph unicode="&#xc7;" d="M100 0v2000h1400v-400h-800v-1200h800v-400h-1400zM500 -400h200v200h600v-200h-200v-200h-600v200z" />
<glyph unicode="&#xc8;" d="M100 0v2000h1400v-400h-800v-400h800v-400h-800v-400h800v-400h-1400zM300 2400v200h600v-200h200v-200h-600v200h-200z" />
<glyph unicode="&#xc9;" d="M100 0v2000h1400v-400h-800v-400h800v-400h-800v-400h800v-400h-1400zM500 2200v200h200v200h600v-200h-200v-200h-600z" />
<glyph unicode="&#xca;" d="M100 0v2000h1400v-400h-800v-400h800v-400h-800v-400h800v-400h-1400zM100 2200v200h200v200h1000v-200h200v-200h-600v200h-200v-200h-600z" />
<glyph unicode="&#xcb;" d="M100 0v2000h1400v-400h-800v-400h800v-400h-800v-400h800v-400h-1400zM100 2200v400h600v-400h-600zM900 2200v400h600v-400h-600z" />
<glyph unicode="&#xcc;" horiz-adv-x="800" d="M-100 2400v200h600v-200h200v-200h-600v200h-200zM100 0v2000h600v-2000h-600z" />
<glyph unicode="&#xcd;" horiz-adv-x="800" d="M100 0v2000h600v-2000h-600zM100 2200v200h200v200h600v-200h-200v-200h-600z" />
<glyph unicode="&#xce;" d="M100 2200v200h200v200h1000v-200h200v-200h-600v200h-200v-200h-600zM500 0v2000h600v-2000h-600z" />
<glyph unicode="&#xcf;" d="M100 2200v400h600v-400h-600zM500 0v2000h600v-2000h-600zM900 2200v400h600v-400h-600z" />
<glyph unicode="&#xd1;" horiz-adv-x="1800" d="M100 0v2000h600v-400h200v-400h200v800h600v-2000h-600v600h-200v400h-200v-1000h-600zM100 2200v400h1000v-200h200v200h400v-400h-1000v200h-200v-200h-400z" />
<glyph unicode="&#xd2;" d="M100 0v2000h1400v-2000h-1400zM300 2400v200h600v-200h200v-200h-600v200h-200zM700 400h200v1200h-200v-1200z" />
<glyph unicode="&#xd3;" d="M100 0v2000h1400v-2000h-1400zM500 2200v200h200v200h600v-200h-200v-200h-600zM700 400h200v1200h-200v-1200z" />
<glyph unicode="&#xd4;" d="M100 0v2000h1400v-2000h-1400zM100 2200v200h200v200h1000v-200h200v-200h-600v200h-200v-200h-600zM700 400h200v1200h-200v-1200z" />
<glyph unicode="&#xd5;" d="M100 0v2000h1400v-2000h-1400zM100 2200v400h800v-200h200v200h400v-400h-800v200h-200v-200h-400zM700 400h200v1200h-200v-1200z" />
<glyph unicode="&#xd6;" d="M100 0v2000h1400v-2000h-1400zM100 2200v400h600v-400h-600zM700 400h200v1200h-200v-1200zM900 2200v400h600v-400h-600z" />
<glyph unicode="&#xd8;" horiz-adv-x="1800" d="M100 -8v2000h1600v-2000h-1600zM700 400h400v400h-200v-200h-200v-200zM700 1200h200v200h200v200h-400v-400z" />
<glyph unicode="&#xd9;" d="M100 0v2000h600v-1600h200v1600h600v-2000h-1400zM300 2400v200h600v-200h200v-200h-600v200h-200z" />
<glyph unicode="&#xda;" d="M100 0v2000h600v-1600h200v1600h600v-2000h-1400zM500 2200v200h200v200h600v-200h-200v-200h-600z" />
<glyph unicode="&#xdb;" d="M100 0v2000h600v-1600h200v1600h600v-2000h-1400zM100 2200v200h200v200h1000v-200h200v-200h-600v200h-200v-200h-600z" />
<glyph unicode="&#xdc;" d="M100 0v2000h600v-1600h200v1600h600v-2000h-1400zM100 2200v400h600v-400h-600zM900 2200v400h600v-400h-600z" />
<glyph unicode="&#xdd;" d="M100 800v1200h600v-800h200v800h600v-1200h-400v-800h-600v800h-400zM500 2200v200h200v200h600v-200h-200v-200h-600z" />
<glyph unicode="&#xde;" d="M100 0v2000h600v-400h800v-1200h-800v-400h-600zM700 800h200v400h-200v-400z" />
<glyph unicode="&#xdf;" horiz-adv-x="1800" d="M100 0v2000h1600v-800h-200v-200h200v-1000h-800v400l201 -1v400l-201 1v400h200v400h-400v-1600h-600z" />
<glyph unicode="&#xe0;" d="M100 0v1000h800v200h-800v400h1400v-1600h-1400zM300 2000v200h600v-200h200v-200h-600v200h-200zM700 400h200v200h-200v-200z" />
<glyph unicode="&#xe1;" d="M100 0v1000h800v200h-800v400h1400v-1600h-1400zM500 1800v200h200v200h600v-200h-200v-200h-600zM700 400h200v200h-200v-200z" />
<glyph unicode="&#xe2;" d="M100 0v1000h800v200h-800v400h1400v-1600h-1400zM100 1800v200h200v200h1000v-200h200v-200h-600v200h-200v-200h-600zM700 400h200v200h-200v-200z" />
<glyph unicode="&#xe3;" d="M100 0v1000h800v200h-800v400h1400v-1600h-1400zM100 1800v400h800v-200h200v200h400v-400h-800v200h-200v-200h-400zM700 400h200v200h-200v-200z" />
<glyph unicode="&#xe4;" d="M100 0v1000h800v200h-800v400h1400v-1600h-1400zM100 1800v400h600v-400h-600zM700 400h200v200h-200v-200zM900 1800v400h600v-400h-600z" />
<glyph unicode="&#xe5;" d="M100 0v1000h800v200h-800v400h1400v-1600h-1400zM500 1800v400h600v-400h-600zM700 400h200v200h-200v-200z" />
<glyph unicode="&#xe6;" horiz-adv-x="2400" d="M100 0v1000h800v200h-800v400h2200v-1000h-800v-200h800v-400h-2200zM700 400h200v200h-200v-200zM1500 1000h200v200h-200v-200z" />
<glyph unicode="&#xe7;" d="M100 0v1600h1400v-400h-800v-800h800v-400h-1400zM500 -400h200v200h600v-200h-200v-200h-600v200z" />
<glyph unicode="&#xe8;" d="M100 0v1600h1400v-1000h-800v-200h800v-400h-1400zM300 2000v200h600v-200h200v-200h-600v200h-200zM700 1000h200v200h-200v-200z" />
<glyph unicode="&#xe9;" d="M100 0v1600h1400v-1000h-800v-200h800v-400h-1400zM500 1800v200h200v200h600v-200h-200v-200h-600zM700 1000h200v200h-200v-200z" />
<glyph unicode="&#xea;" d="M100 0v1600h1400v-1000h-800v-200h800v-400h-1400zM100 1800v200h200v200h1000v-200h200v-200h-600v200h-200v-200h-600zM700 1000h200v200h-200v-200z" />
<glyph unicode="&#xeb;" d="M100 0v1600h1400v-1000h-800v-200h800v-400h-1400zM100 1800v400h600v-400h-600zM700 1000h200v200h-200v-200zM900 1800v400h600v-400h-600z" />
<glyph unicode="&#xec;" horiz-adv-x="800" d="M-100 2000v200h600v-200h200v-200h-600v200h-200zM100 0v1600h600v-1600h-600z" />
<glyph unicode="&#xed;" horiz-adv-x="800" d="M100 0v1600h600v-1600h-600zM100 1800v200h200v200h600v-200h-200v-200h-600z" />
<glyph unicode="&#xee;" d="M100 1800v200h200v200h1000v-200h200v-200h-600v200h-200v-200h-600zM500 0v1600h600v-1600h-600z" />
<glyph unicode="&#xef;" d="M100 1800v400h600v-400h-600zM500 0v1600h600v-1600h-600zM900 1800v400h600v-400h-600z" />
<glyph unicode="&#xf1;" d="M100 0v1600h1400v-1600h-600v1200h-200v-1200h-600zM100 1800v400h800v-200h200v200h400v-400h-800v200h-200v-200h-400z" />
<glyph unicode="&#xf2;" d="M100 0v1600h1400v-1600h-1400zM300 2000v200h600v-200h200v-200h-600v200h-200zM700 400h200v800h-200v-800z" />
<glyph unicode="&#xf3;" d="M100 0v1600h1400v-1600h-1400zM500 1800v200h200v200h600v-200h-200v-200h-600zM700 400h200v800h-200v-800z" />
<glyph unicode="&#xf4;" d="M100 0v1600h1400v-1600h-1400zM100 1800v200h200v200h1000v-200h200v-200h-600v200h-200v-200h-600zM700 400h200v800h-200v-800z" />
<glyph unicode="&#xf5;" d="M100 0v1600h1400v-1600h-1400zM100 1800v400h800v-200h200v200h400v-400h-800v200h-200v-200h-400zM700 400h200v800h-200v-800z" />
<glyph unicode="&#xf6;" d="M100 0v1600h1400v-1600h-1400zM100 1800v400h600v-400h-600zM700 400h200v800h-200v-800zM900 1800v400h600v-400h-600z" />
<glyph unicode="&#xf8;" horiz-adv-x="1800" d="M100 -8v1600h1600v-1600h-1600zM700 400h400v400h-200v-200h-200v-200zM700 800h200v200h200v200h-400v-400z" />
<glyph unicode="&#xf9;" d="M100 0v1600h600v-1200h200v1200h600v-1600h-1400zM300 2000v200h600v-200h200v-200h-600v200h-200z" />
<glyph unicode="&#xfa;" d="M100 0v1600h600v-1200h200v1200h600v-1600h-1400zM500 1800v200h200v200h600v-200h-200v-200h-600z" />
<glyph unicode="&#xfb;" d="M100 0v1600h600v-1200h200v1200h600v-1600h-1400zM100 1800v200h200v200h1000v-200h200v-200h-600v200h-200v-200h-600z" />
<glyph unicode="&#xfc;" d="M100 0v1600h600v-1200h200v1200h600v-1600h-1400zM100 1800v400h600v-400h-600zM900 1800v400h600v-400h-600z" />
<glyph unicode="&#xfd;" d="M100 0h800v200h-800v1400h600v-1000h200v1000h600v-2000h-1400v400zM500 1800v200h200v200h600v-200h-200v-200h-600z" />
<glyph unicode="&#xfe;" d="M100 -400v2400h600v-400h800v-1600h-800v-400h-600zM700 400h200v800h-200v-800z" />
<glyph unicode="&#xff;" d="M100 0h800v200h-800v1400h600v-1000h200v1000h600v-2000h-1400v400zM100 1800v400h600v-400h-600zM900 1800v400h600v-400h-600z" />
<glyph unicode="&#x152;" horiz-adv-x="2400" d="M100 0v2000h2200v-400h-800v-400h800v-400h-800v-400h800v-400h-2200zM700 400h200v1200h-200v-1200z" />
<glyph unicode="&#x153;" horiz-adv-x="2400" d="M100 0v1600h2200v-1000h-800v-200h800v-400h-2200zM700 400h200v800h-200v-800zM1500 1000h200v200h-200v-200z" />
<glyph unicode="&#x178;" d="M100 800v1200h600v-800h200v800h600v-1200h-400v-800h-600v800h-400zM100 2200v400h600v-400h-600zM900 2200v400h600v-400h-600z" />
<glyph unicode="&#x2000;" horiz-adv-x="1300" />
<glyph unicode="&#x2001;" horiz-adv-x="2600" />
<glyph unicode="&#x2002;" horiz-adv-x="1300" />
<glyph unicode="&#x2003;" horiz-adv-x="2600" />
<glyph unicode="&#x2004;" horiz-adv-x="866" />
<glyph unicode="&#x2005;" horiz-adv-x="650" />
<glyph unicode="&#x2006;" horiz-adv-x="433" />
<glyph unicode="&#x2007;" horiz-adv-x="433" />
<glyph unicode="&#x2008;" horiz-adv-x="325" />
<glyph unicode="&#x2009;" horiz-adv-x="520" />
<glyph unicode="&#x200a;" horiz-adv-x="144" />
<glyph unicode="&#x2010;" horiz-adv-x="1000" d="M100 792v400h800v-400h-800z" />
<glyph unicode="&#x2011;" horiz-adv-x="1000" d="M100 792v400h800v-400h-800z" />
<glyph unicode="&#x2012;" horiz-adv-x="1000" d="M100 792v400h800v-400h-800z" />
<glyph unicode="&#x2013;" horiz-adv-x="1000" d="M100 792v400h800v-400h-800z" />
<glyph unicode="&#x2014;" horiz-adv-x="1400" d="M100 792v400h1200v-400h-1200z" />
<glyph unicode="&#x2018;" horiz-adv-x="800" d="M100 1400v600h600v-400h-200v-200h200v-200h-400v200h-200z" />
<glyph unicode="&#x2019;" horiz-adv-x="800" d="M100 1200v200h200v200h-200v400h600v-600h-200v-200h-400z" />
<glyph unicode="&#x201c;" d="M100 1400v600h600v-400h-200v-200h200v-200h-400v200h-200zM900 1400v600h600v-400h-200v-200h200v-200h-400v200h-200z" />
<glyph unicode="&#x201d;" d="M100 1200v200h200v200h-200v400h600v-600h-200v-200h-400zM900 1200v200h200v200h-200v400h600v-600h-200v-200h-400z" />
<glyph unicode="&#x2026;" horiz-adv-x="2400" d="M100 1v400h600v-400h-600zM900 0v400h600v-400h-600zM1700 0v400h600v-400h-600z" />
<glyph unicode="&#x202f;" horiz-adv-x="520" />
<glyph unicode="&#x205f;" horiz-adv-x="650" />
<glyph unicode="&#x25fc;" d="M0 0v1600h1600v-1600h-1600z" />
</font>
</defs>
</svg>
